<?xml version="1.0" encoding="UTF-8"?>
<!DOCTYPE svg PUBLIC "-//W3C//DTD SVG 1.1//EN" "http://www.w3.org/Graphics/SVG/1.1/DTD/svg11.dtd">
<!-- Creator: CorelDRAW 2017 -->
<svg xmlns="http://www.w3.org/2000/svg" xml:space="preserve" width="85.1172mm" height="18.4444mm" version="1.1" style="shape-rendering:geometricPrecision; text-rendering:geometricPrecision; image-rendering:optimizeQuality; fill-rule:evenodd; clip-rule:evenodd"
viewBox="0 0 52565.06 11390.54"
 xmlns:xlink="http://www.w3.org/1999/xlink">
 <defs>
  <style type="text/css">
   <![CDATA[
    .str0 {stroke:#2B2A29;stroke-width:123.51;stroke-miterlimit:22.9256}
    .fil0 {fill:#2B2A29}
    .fil2 {fill:#FA6E36}
    .fil1 {fill:#FEFEFE;fill-rule:nonzero}
   ]]>
  </style>
 </defs>
 <g id="Layer_x0020_1_0">
  <metadata id="CorelCorpID_0Corel-Layer"/>
  <g id="prusa-icons-set.cdr">
   <rect class="fil0 str0" x="61.76" y="3309.63" width="26290.41" height="8019.14"/>
   <path class="fil1" d="M2703 5836.45l880.52 0c401.54,0 704.45,183.11 704.45,662.15 0,457.86 -288.77,626.95 -704.45,626.95l-880.52 0 0 -1289.1zm-1310.28 3980.06l1310.28 0 0 -1676.55 1077.77 0c1105.99,0 1817.48,-486.08 1817.48,-1732.94 0,-1190.47 -880.58,-1620.23 -1817.48,-1620.23l-2388.05 0 0 5029.73z"/>
   <path id="1" class="fil1" d="M7306.55 5836.45l1042.57 0c366.34,0 662.15,169.03 662.15,542.4 0,387.46 -211.33,591.75 -605.77,591.75l-1098.95 0 0 -1134.15zm-1310.28 3980.06l1310.28 0 0 -1831.56 993.29 0c619.91,0 697.35,521.28 732.61,1028.49 21.12,147.97 35.2,626.95 147.91,803.08l1296.2 0c-176.13,-197.25 -190.21,-915.78 -211.33,-1134.15 -35.26,-479.04 -204.29,-1070.73 -732.67,-1204.61l0 -14.08c535.43,-204.29 789,-718.53 789,-1260.94 0,-1014.41 -880.52,-1415.94 -1761.1,-1415.94l-2564.18 0 0 5029.73z"/>
   <path id="2" class="fil1" d="M15206.76 4786.78l-1310.22 0 0 3029.14c0,648.07 -232.51,979.14 -880.58,979.14 -648.07,0 -880.52,-331.07 -880.52,-979.14l0 -3029.14 -1310.22 0 0 2951.63c0,1458.19 669.13,2183.76 2190.74,2183.76 1521.61,0 2190.8,-725.57 2190.8,-2183.76l0 -2951.63z"/>
   <path id="3" class="fil1" d="M15569.58 8125.87c0,1289.1 1035.53,1796.3 2183.76,1796.3 1105.93,0 2190.8,-408.58 2190.8,-1683.59 0,-908.74 -732.61,-1246.86 -1458.19,-1451.14 -732.61,-204.29 -1458.19,-267.71 -1458.19,-662.21 0,-331.07 352.2,-429.7 633.99,-429.7 394.5,0 831.24,155.01 810.12,605.83l1310.22 0c0,-1127.11 -1021.45,-1620.23 -2014.67,-1620.23 -943.94,0 -2049.93,429.76 -2049.93,1528.65 0,929.86 760.77,1246.86 1472.27,1451.14 725.57,204.29 1444.1,281.79 1444.1,732.61 0,373.38 -408.58,514.24 -803.08,514.24 -563.52,0 -922.82,-190.21 -950.98,-781.89l-1310.22 0z"/>
   <path id="4" class="fil1" d="M19820.81 9816.5l1345.48 0 316.99 -901.7 1754.06 0 309.95 901.7 1366.66 0 -1880.91 -5029.73 -1331.34 0 -1880.91 5029.73zm2536.01 -3634.9l14.08 0 556.48 1761.1 -1141.19 0 570.63 -1761.1z"/>
   <rect class="fil0 str0" x="27430.67" y="3309.63" width="24562.66" height="8019.14"/>
   <polygon class="fil1" points="29072.06,9816.5 30382.33,9816.5 30382.33,4786.78 29072.06,4786.78 "/>
   <path id="1" class="fil1" d="M35718.43 6583.14c-35.2,-1211.65 -1204.55,-1902.03 -2296.46,-1902.03 -1528.65,0 -2507.79,1162.37 -2507.79,2620.56 0,1458.19 979.14,2620.5 2507.79,2620.5 1275.02,0 2218.96,-753.73 2296.46,-2056.97l-1310.22 0c-49.34,584.71 -394.5,929.86 -1014.41,929.86 -845.32,0 -1169.35,-739.65 -1169.35,-1493.39 0,-753.79 324.03,-1493.45 1169.35,-1493.45 556.48,0 936.9,267.71 1014.41,774.92l1310.22 0z"/>
   <path id="2" class="fil1" d="M37314.02 7301.67c0,-753.79 324.03,-1493.45 1169.35,-1493.45 845.38,0 1169.41,739.65 1169.41,1493.45 0,753.73 -324.03,1493.39 -1169.41,1493.39 -845.32,0 -1169.35,-739.65 -1169.35,-1493.39zm-1310.22 0c0,1458.19 901.64,2620.5 2479.57,2620.5 1577.99,0 2479.63,-1162.31 2479.63,-2620.5 0,-1458.19 -901.64,-2620.56 -2479.63,-2620.56 -1577.93,0 -2479.57,1162.37 -2479.57,2620.56z"/>
   <polygon id="3" class="fil1" points="41438.53,9816.5 42671.3,9816.5 42671.3,6681.76 42685.39,6681.76 44432.4,9816.5 45777.88,9816.5 45777.88,4786.78 44545.11,4786.78 44545.11,7886.32 44531.03,7886.32 42784.01,4786.78 41438.53,4786.78 "/>
   <path id="4" class="fil1" d="M46161.82 8125.87c0,1289.1 1035.53,1796.3 2183.76,1796.3 1105.93,0 2190.8,-408.58 2190.8,-1683.59 0,-908.74 -732.61,-1246.86 -1458.19,-1451.14 -732.61,-204.29 -1458.19,-267.71 -1458.19,-662.21 0,-331.07 352.2,-429.7 633.99,-429.7 394.5,0 831.24,155.01 810.12,605.83l1310.22 0c0,-1127.11 -1021.45,-1620.23 -2014.67,-1620.23 -943.94,0 -2049.93,429.76 -2049.93,1528.65 0,929.86 760.77,1246.86 1472.27,1451.14 725.57,204.29 1444.1,281.79 1444.1,732.61 0,373.38 -408.58,514.24 -803.08,514.24 -563.52,0 -922.82,-190.21 -950.98,-781.89l-1310.22 0z"/>
   <rect class="fil2" x="43937.89" width="8627.19" height="4175.57"/>
   <path class="fil1" d="M44711.54 2560.22c0,683.33 548.89,952.22 1157.62,952.22 586.25,0 1161.32,-216.58 1161.32,-892.5 0,-481.7 -388.38,-660.91 -773,-769.23 -388.32,-108.26 -773,-141.92 -773,-351.02 0,-175.51 186.75,-227.76 336.08,-227.76 209.17,0 440.69,82.14 429.45,321.13l694.57 0c0,-597.49 -541.48,-858.84 -1068.01,-858.84 -500.35,0 -1086.6,227.76 -1086.6,810.3 0,492.94 403.27,660.98 780.41,769.23 384.62,108.32 765.53,149.39 765.53,388.38 0,197.87 -216.58,272.59 -425.68,272.59 -298.78,0 -489.23,-100.85 -504.12,-414.51l-694.57 0z"/>
   <polygon id="1" class="fil1" points="47237.67,3456.43 49399.76,3456.43 49399.76,2858.94 47932.25,2858.94 47932.25,2351.12 49239.19,2351.12 49239.19,1813.41 47932.25,1813.41 47932.25,1346.59 49362.46,1346.59 49362.46,790.23 47237.67,790.23 "/>
   <polygon id="2" class="fil1" points="51791.51,790.23 49506.16,790.23 49506.16,1387.66 50301.58,1387.66 50301.58,3456.43 50996.15,3456.43 50996.15,1387.66 51791.51,1387.66 "/>
  </g>
 </g>
</svg>
